<svg width="100%" viewBox="0 0 680 220" role="img" xmlns="http://www.w3.org/2000/svg">
  <title>Amit Kumar Behera – GitHub Profile Banner</title>
  <desc>Light oceanic background banner with name, title, and research focus</desc>
  <rect width="680" height="220" fill="#e8f4fd" rx="0"/>
  <rect x="0" y="150" width="680" height="70" fill="#d0eaf8" rx="0"/>
  <rect x="0" y="175" width="680" height="45" fill="#bce0f5" rx="0"/>
  <rect x="0" y="195" width="680" height="25" fill="#a8d5f0" rx="0"/>
  <circle cx="60" cy="55" r="38" fill="#c2dcf0" opacity="0.5"/>
  <circle cx="620" cy="40" r="28" fill="#b0d3ec" opacity="0.4"/>
  <circle cx="340" cy="15" r="18" fill="#c8e2f5" opacity="0.45"/>
  <circle cx="580" cy="160" r="22" fill="#9ecde8" opacity="0.3"/>
  <circle cx="100" cy="170" r="16" fill="#b0d8ef" opacity="0.3"/>
  <circle cx="160" cy="32" r="2" fill="#5ba8d4" opacity="0.6"/>
  <circle cx="240" cy="18" r="1.5" fill="#4a9bca" opacity="0.5"/>
  <circle cx="420" cy="28" r="2" fill="#5ba8d4" opacity="0.6"/>
  <circle cx="510" cy="14" r="1.5" fill="#4a9bca" opacity="0.5"/>
  <circle cx="560" cy="36" r="1.5" fill="#5ba8d4" opacity="0.4"/>
  <circle cx="310" cy="38" r="1.5" fill="#4a9bca" opacity="0.4"/>
  <circle cx="640" cy="80" r="2" fill="#5ba8d4" opacity="0.4"/>
  <circle cx="40" cy="110" r="1.5" fill="#4a9bca" opacity="0.35"/>
  <line x1="160" y1="32" x2="240" y2="18" stroke="#7bbdd9" stroke-width="0.5" opacity="0.3"/>
  <line x1="240" y1="18" x2="310" y2="38" stroke="#7bbdd9" stroke-width="0.5" opacity="0.3"/>
  <line x1="420" y1="28" x2="510" y2="14" stroke="#7bbdd9" stroke-width="0.5" opacity="0.3"/>
  <line x1="510" y1="14" x2="560" y2="36" stroke="#7bbdd9" stroke-width="0.5" opacity="0.3"/>
  <path d="M0 195 Q85 178 170 190 Q255 202 340 185 Q425 168 510 182 Q595 196 680 178 L680 220 L0 220 Z" fill="#93cce8" opacity="0.4"/>
  <path d="M0 205 Q100 190 200 202 Q300 214 400 198 Q500 182 600 196 Q640 203 680 193 L680 220 L0 220 Z" fill="#7bbdd9" opacity="0.35"/>
  <text x="340" y="82" text-anchor="middle" font-family="'Courier New', monospace" font-size="26" font-weight="700" fill="#0c4a6e" letter-spacing="6">AMIT KUMAR BEHERA</text>
  <text x="340" y="108" text-anchor="middle" font-family="'Courier New', monospace" font-size="12" font-weight="400" fill="#1e6a9e" letter-spacing="2">IIT PATNA  ·  IIT MADRAS  ·  EDGE AI RESEARCHER</text>
  <line x1="200" y1="120" x2="480" y2="120" stroke="#4a9bca" stroke-width="0.8" opacity="0.6"/>
  <text x="340" y="140" text-anchor="middle" font-family="'Courier New', monospace" font-size="10.5" font-weight="400" fill="#1a5f8a" letter-spacing="1">Deep Learning  ·  Edge Inference  ·  Computer Vision  ·  Secure IoT</text>
  <rect x="148" y="155" width="120" height="22" rx="11" fill="#0ea5e9" opacity="0.18"/>
  <text x="208" y="170" text-anchor="middle" font-family="'Courier New', monospace" font-size="9.5" fill="#0c4a6e" font-weight="600">6 PUBLICATIONS</text>
  <rect x="280" y="155" width="120" height="22" rx="11" fill="#0ea5e9" opacity="0.18"/>
  <text x="340" y="170" text-anchor="middle" font-family="'Courier New', monospace" font-size="9.5" fill="#0c4a6e" font-weight="600">2 BEST PAPER AWARDS</text>
  <rect x="412" y="155" width="120" height="22" rx="11" fill="#0ea5e9" opacity="0.18"/>
  <text x="472" y="170" text-anchor="middle" font-family="'Courier New', monospace" font-size="9.5" fill="#0c4a6e" font-weight="600">SAMSUNG FELLOW</text>
  <text x="340" y="205" text-anchor="middle" font-family="'Courier New', monospace" font-size="8.5" fill="#1a5f8a" opacity="0.7" letter-spacing="1">CGPA 9.43  ·  5 RESEARCH INTERNSHIPS  ·  1,223 OFFICERS TRAINED</text>
</svg>
